<svg xmlns="http://www.w3.org/2000/svg" width="1024" height="1024" viewBox="0 0 1024 1024">
  <defs>
    <linearGradient id="arc" x1="260" y1="220" x2="790" y2="810" gradientUnits="userSpaceOnUse">
      <stop offset="0" stop-color="#22E7FF"/>
      <stop offset=".44" stop-color="#6975FF"/>
      <stop offset=".72" stop-color="#B64CFF"/>
      <stop offset="1" stop-color="#FF477E"/>
    </linearGradient>
    <radialGradient id="ember" cx="42%" cy="35%" r="70%">
      <stop offset="0" stop-color="#FFF7DF"/>
      <stop offset=".24" stop-color="#FFD36A"/>
      <stop offset=".62" stop-color="#FF6B4A"/>
      <stop offset="1" stop-color="#E52A83"/>
    </radialGradient>
    <linearGradient id="spark" x1="0" y1="0" x2="1" y2="1">
      <stop offset="0" stop-color="#65F4FF"/>
      <stop offset="1" stop-color="#8D5BFF"/>
    </linearGradient>
  </defs>

  <circle cx="512" cy="512" r="306" fill="none" stroke="#65EFFF" stroke-opacity=".16" stroke-width="5" stroke-dasharray="42 28 10 34" transform="rotate(-18 512 512)"/>
  <circle cx="512" cy="512" r="274" fill="none" stroke="#D357FF" stroke-opacity=".12" stroke-width="4" stroke-dasharray="7 25"/>

  <g fill="none" stroke-linecap="round" stroke-linejoin="round">
    <g stroke="#090522" stroke-opacity=".78" stroke-width="104">
      <path d="M512 492 C520 382 616 300 716 334 C806 365 834 476 782 553 C733 625 628 626 570 574 C531 540 520 512 512 492"/>
      <path d="M512 492 C520 382 616 300 716 334 C806 365 834 476 782 553 C733 625 628 626 570 574 C531 540 520 512 512 492" transform="rotate(120 512 512)"/>
      <path d="M512 492 C520 382 616 300 716 334 C806 365 834 476 782 553 C733 625 628 626 570 574 C531 540 520 512 512 492" transform="rotate(240 512 512)"/>
    </g>
    <g stroke="url(#arc)" stroke-width="72">
      <path d="M512 492 C520 382 616 300 716 334 C806 365 834 476 782 553 C733 625 628 626 570 574 C531 540 520 512 512 492"/>
      <path d="M512 492 C520 382 616 300 716 334 C806 365 834 476 782 553 C733 625 628 626 570 574 C531 540 520 512 512 492" transform="rotate(120 512 512)"/>
      <path d="M512 492 C520 382 616 300 716 334 C806 365 834 476 782 553 C733 625 628 626 570 574 C531 540 520 512 512 492" transform="rotate(240 512 512)"/>
    </g>
    <g stroke="#C8FAFF" stroke-opacity=".34" stroke-width="12">
      <path d="M527 459 C555 377 640 332 714 359"/>
      <path d="M527 459 C555 377 640 332 714 359" transform="rotate(120 512 512)"/>
      <path d="M527 459 C555 377 640 332 714 359" transform="rotate(240 512 512)"/>
    </g>
  </g>

  <g transform="translate(512 512) scale(.43) rotate(60) translate(-512 -512)" fill="none" stroke-linecap="round" stroke-linejoin="round">
    <g stroke="#08041D" stroke-width="108">
      <path d="M512 492 C520 382 616 300 716 334 C806 365 834 476 782 553 C733 625 628 626 570 574 C531 540 520 512 512 492"/>
      <path d="M512 492 C520 382 616 300 716 334 C806 365 834 476 782 553 C733 625 628 626 570 574 C531 540 520 512 512 492" transform="rotate(120 512 512)"/>
      <path d="M512 492 C520 382 616 300 716 334 C806 365 834 476 782 553 C733 625 628 626 570 574 C531 540 520 512 512 492" transform="rotate(240 512 512)"/>
    </g>
    <g stroke="url(#arc)" stroke-width="70">
      <path d="M512 492 C520 382 616 300 716 334 C806 365 834 476 782 553 C733 625 628 626 570 574 C531 540 520 512 512 492"/>
      <path d="M512 492 C520 382 616 300 716 334 C806 365 834 476 782 553 C733 625 628 626 570 574 C531 540 520 512 512 492" transform="rotate(120 512 512)"/>
      <path d="M512 492 C520 382 616 300 716 334 C806 365 834 476 782 553 C733 625 628 626 570 574 C531 540 520 512 512 492" transform="rotate(240 512 512)"/>
    </g>
  </g>

  <rect x="456" y="456" width="112" height="112" rx="28" fill="#090522" transform="rotate(45 512 512)"/>
  <rect x="468" y="468" width="88" height="88" rx="23" fill="url(#ember)" transform="rotate(45 512 512)"/>
  <circle cx="512" cy="512" r="18" fill="#FFF8E8"/>

  <g fill="url(#spark)">
    <rect x="496" y="184" width="32" height="32" rx="8" transform="rotate(45 512 200)"/>
    <rect x="496" y="184" width="32" height="32" rx="8" transform="rotate(165 512 512)"/>
    <rect x="496" y="184" width="32" height="32" rx="8" transform="rotate(285 512 512)"/>
  </g>
  <g fill="#FF8B55">
    <circle cx="512" cy="246" r="9"/>
    <circle cx="512" cy="246" r="9" transform="rotate(120 512 512)"/>
    <circle cx="512" cy="246" r="9" transform="rotate(240 512 512)"/>
  </g>
</svg>
